<svg width="14" height="14" viewBox="0 0 14 14" fill="none" xmlns="http://www.w3.org/2000/svg">
<path d="M8.89484 7.00031L12.563 3.3322C13.0862 2.80895 13.0862 1.96061 12.563 1.43736C12.0397 0.914109 11.1914 0.914109 10.6681 1.43736L7 5.10547L3.33189 1.43736C2.80864 0.914109 1.9603 0.914109 1.43705 1.43736C0.913804 1.96061 0.913804 2.80895 1.43705 3.3322L5.10516 7.00031L1.43705 10.6684C0.913804 11.1917 0.913804 12.04 1.43705 12.5633C1.69868 12.8249 2.04157 12.9557 2.38446 12.9557C2.72735 12.9557 3.07027 12.8249 3.33187 12.5633L7 8.89515L10.6681 12.5633C10.9297 12.8249 11.2726 12.9557 11.6155 12.9557C11.9584 12.9557 12.3013 12.8249 12.5629 12.5633C13.0862 12.04 13.0862 11.1917 12.5629 10.6684L8.89484 7.00031Z" fill="white"/>
</svg>
