<svg width="18" height="8" viewBox="0 0 21 11" fill="none" xmlns="http://www.w3.org/2000/svg">
<path d="M1.68725 0.273146C1.59178 0.182928 1.47947 0.112398 1.35674 0.0655823C1.23401 0.0187668 1.10327 -0.00341775 0.971965 0.000296593C0.840663 0.00401093 0.711378 0.033551 0.591492 0.0872297C0.471606 0.140908 0.363467 0.217675 0.273249 0.313146C0.183031 0.408617 0.112501 0.520923 0.0656852 0.643652C0.0188697 0.766381 -0.00331434 0.897128 0.000400002 1.02843C0.00411435 1.15973 0.0336542 1.28902 0.0873329 1.4089C0.141012 1.52879 0.217778 1.63693 0.313249 1.72715L9.31325 10.2271C9.49892 10.4027 9.74474 10.5005 10.0002 10.5005C10.2558 10.5005 10.5016 10.4027 10.6872 10.2271L19.6882 1.72715C19.7858 1.63752 19.8646 1.52941 19.92 1.40908C19.9754 1.28875 20.0064 1.15861 20.0111 1.02622C20.0158 0.893826 19.9942 0.761816 19.9474 0.637859C19.9007 0.513903 19.8298 0.400469 19.7388 0.304149C19.6479 0.207828 19.5387 0.13054 19.4176 0.0767736C19.2965 0.0230074 19.166 -0.00616495 19.0335 -0.00904942C18.9011 -0.0119339 18.7694 0.0115268 18.6461 0.0599709C18.5228 0.108415 18.4103 0.180876 18.3153 0.273146L10.0002 8.12515L1.68725 0.273146Z" fill="black"/>
</svg>
