<svg width="24" height="24" viewBox="0 0 60 60" fill="none" xmlns="http://www.w3.org/2000/svg">
<g clip-path="url(#clip0_2615_9421)">
<path d="M45 55C42.9167 55 41.1458 54.2708 39.6875 52.8125C38.2292 51.3542 37.5 49.5833 37.5 47.5C37.5 47.2083 37.5208 46.9058 37.5625 46.5925C37.6042 46.2792 37.6667 45.9983 37.75 45.75L20.125 35.5C19.4167 36.125 18.625 36.615 17.75 36.97C16.875 37.325 15.9583 37.5017 15 37.5C12.9167 37.5 11.1458 36.7708 9.6875 35.3125C8.22917 33.8542 7.5 32.0833 7.5 30C7.5 27.9167 8.22917 26.1458 9.6875 24.6875C11.1458 23.2292 12.9167 22.5 15 22.5C15.9583 22.5 16.875 22.6775 17.75 23.0325C18.625 23.3875 19.4167 23.8767 20.125 24.5L37.75 14.25C37.6667 14 37.6042 13.7192 37.5625 13.4075C37.5208 13.0958 37.5 12.7933 37.5 12.5C37.5 10.4167 38.2292 8.64583 39.6875 7.1875C41.1458 5.72917 42.9167 5 45 5C47.0833 5 48.8542 5.72917 50.3125 7.1875C51.7708 8.64583 52.5 10.4167 52.5 12.5C52.5 14.5833 51.7708 16.3542 50.3125 17.8125C48.8542 19.2708 47.0833 20 45 20C44.0417 20 43.125 19.8233 42.25 19.47C41.375 19.1167 40.5833 18.6267 39.875 18L22.25 28.25C22.3333 28.5 22.3958 28.7817 22.4375 29.095C22.4792 29.4083 22.5 29.71 22.5 30C22.5 30.2917 22.4792 30.5942 22.4375 30.9075C22.3958 31.2208 22.3333 31.5017 22.25 31.75L39.875 42C40.5833 41.375 41.375 40.8858 42.25 40.5325C43.125 40.1792 44.0417 40.0017 45 40C47.0833 40 48.8542 40.7292 50.3125 42.1875C51.7708 43.6458 52.5 45.4167 52.5 47.5C52.5 49.5833 51.7708 51.3542 50.3125 52.8125C48.8542 54.2708 47.0833 55 45 55Z" fill="white"/>
</g>
<defs>
<clipPath id="clip0_2615_9421">
<rect width="60" height="60" fill="white"/>
</clipPath>
</defs>
</svg>
