<svg width="60" height="48" viewBox="0 0 60 48" fill="none" xmlns="http://www.w3.org/2000/svg">
<path d="M59.1666 14.106V37.8535C59.1668 40.2747 58.2404 42.6043 56.5776 44.3642C54.9148 46.1241 52.6415 47.181 50.2241 47.3181L49.6875 47.3327H10.3125C7.89124 47.3328 5.56173 46.4065 3.80181 44.7436C2.04188 43.0808 0.984976 40.8075 0.847897 38.3902L0.833313 37.8535V14.106L28.985 28.8527C29.2982 29.0167 29.6464 29.1024 30 29.1024C30.3535 29.1024 30.7018 29.0167 31.015 28.8527L59.1666 14.106ZM10.3125 0.666016H49.6875C52.0371 0.665733 54.3031 1.53809 56.0459 3.11388C57.7888 4.68967 58.8843 6.85659 59.12 9.19435L30 24.4485L0.87998 9.19435C1.10609 6.94943 2.12554 4.85877 3.75508 3.2982C5.38463 1.73762 7.51738 0.809478 9.76998 0.680599L10.3125 0.666016Z" fill="white"/>
</svg>
