<svg width="53" height="53" viewBox="0 0 53 53" fill="none" xmlns="http://www.w3.org/2000/svg">
<path d="M51.7537 40.9922L39.8975 30.2122C39.337 29.7028 38.6006 29.4311 37.8436 29.4545C37.0866 29.4779 36.3683 29.7946 35.8404 30.3376L28.8608 37.5155C27.1808 37.1947 23.8033 36.1418 20.3266 32.6739C16.85 29.1943 15.7971 25.808 15.485 24.1397L22.6571 17.1572C23.2008 16.6297 23.5179 15.9113 23.5413 15.1541C23.5647 14.3968 23.2925 13.6602 22.7825 13.1001L12.0054 1.24678C11.4951 0.684908 10.7859 0.344088 10.0283 0.296708C9.2708 0.249328 8.52463 0.499121 7.9483 0.993035L1.61914 6.42095C1.11488 6.92704 0.8139 7.6006 0.773301 8.31387C0.729551 9.04303 -0.104615 26.3155 13.2887 39.7147C24.9729 51.396 39.6087 52.2505 43.6396 52.2505C44.2287 52.2505 44.5904 52.233 44.6866 52.2272C45.3998 52.1873 46.073 51.885 46.5766 51.3785L52.0016 45.0464C52.4975 44.4719 52.7491 43.7263 52.7028 42.9688C52.6565 42.2113 52.3159 41.502 51.7537 40.9922Z" fill="white"/>
</svg>
